<svg width="20" height="18" viewBox="0 0 20 18" fill="none" xmlns="http://www.w3.org/2000/svg">
<path d="M0.585641 14H15.9139C16.0513 14 16.1842 13.9539 16.2896 13.8698C16.4368 13.7516 19.7952 10.9809 20 5H3.53781C3.33381 10.429 0.240874 12.9808 0.208731 13.0063C0.0202959 13.159 -0.049033 13.4084 0.0357414 13.6303C0.119929 13.8517 0.339334 14 0.585641 14Z" fill="#0F1123"/>
<path d="M19.4299 1.33333H16.5796V0.666667C16.5796 0.293333 16.3287 0 16.0095 0C15.6903 0 15.4394 0.293333 15.4394 0.666667V1.33333H12.5511V0.666667C12.5511 0.293333 12.3002 0 11.981 0C11.6618 0 11.4109 0.293333 11.4109 0.666667V1.33333H8.56057V0.666667C8.56057 0.293333 8.30974 0 7.9905 0C7.67126 0 7.42043 0.293333 7.42043 0.666667V1.33333H4.57007C4.25083 1.33333 4 1.62667 4 2V4H20V2C20 1.62667 19.7492 1.33333 19.4299 1.33333Z" fill="#0F1123"/>
<path d="M17.1068 14.9216C16.7972 15.2179 16.4087 15.3791 16.0095 15.3791H4V17.3448C4 17.7069 4.25497 18 4.57007 18H19.4299C19.745 18 20 17.7069 20 17.3448V10C18.9009 13.0992 17.3672 14.6711 17.1068 14.9216Z" fill="#0F1123"/>
</svg>
