<svg width="355" height="151" viewBox="0 0 355 151" fill="none" xmlns="http://www.w3.org/2000/svg">
<path fill-rule="evenodd" clip-rule="evenodd" d="M130.868 80.2132L159.976 68.6823C162.17 67.8165 161.837 68.153 162.121 66.6841C162.35 65.503 162.599 64.3446 162.827 63.1733L168.444 35.2637C169.375 30.6548 170.983 27.5582 174.582 24.8137C178.858 21.5536 181.69 21.8011 187.733 21.8011C190.421 21.8011 193.108 21.8011 195.796 21.8011C198.339 21.8011 201.337 21.6479 203.824 21.8184L197.53 53.7398C199.833 53.0302 210.308 48.6781 213.023 47.6277C215.641 46.6152 218.156 45.5879 220.765 44.5575C221.604 44.226 228.313 41.6834 228.463 41.4205L236.905 0.0268888L174.399 0.0238886C172.561 0.0238886 170.52 -0.0629932 168.731 0.0954743C162.054 0.687191 156.624 3.77652 152.663 7.11777C149.008 10.2001 145.226 14.837 143.051 20.9892C141.919 24.1923 139.706 36.2864 138.828 40.559L132.851 70.2724C132.48 72.0602 131.02 78.945 130.868 80.2132Z" fill="white"/>
<path fill-rule="evenodd" clip-rule="evenodd" d="M244.215 150.754H272.78L298.639 21.801L324.714 21.7979L327.73 6.97339L268.307 30.5828L244.215 150.754Z" fill="white"/>
<path fill-rule="evenodd" clip-rule="evenodd" d="M4.40388 130.397L35.2998 118.163L59.0254 0.0549917L30.6167 0.0235596C30.2926 0.126871 29.7766 3.45769 29.6771 3.96824C29.4156 5.31157 29.12 6.68319 28.8636 8.02738C27.3068 16.1884 25.5493 24.3597 23.9562 32.5435C19.7261 54.2727 15.149 76.0985 10.9026 97.8182L5.19799 126.308C4.94095 127.573 4.54586 129.161 4.40388 130.397Z" fill="white"/>
<path fill-rule="evenodd" clip-rule="evenodd" d="M116.657 150.754H145.027L153.969 107.088L171.667 106.045L182.265 85.0196C182.778 83.9692 185.698 78.5054 185.766 77.9477L159.91 77.7425L160.779 73.2974C160.154 73.3523 134.725 83.5435 131.46 84.8581C131.022 85.0343 130.508 85.1953 130.098 85.3851C129.61 85.611 129.768 85.6275 129.534 86.7492C128.655 90.9636 127.799 95.3185 126.955 99.5422C123.543 116.601 120.021 133.683 116.657 150.754Z" fill="white"/>
<path fill-rule="evenodd" clip-rule="evenodd" d="M83.176 99.1184C83.9752 98.9368 110.532 88.3155 112.264 87.6216C114.236 86.8316 113.953 87.4313 114.413 85.1919C114.944 82.6068 115.434 80.0066 115.969 77.4533L129.991 7.84501C130.509 5.24165 131.139 2.62016 131.555 0.0238037L103.032 0.0242293L83.176 99.1184Z" fill="white"/>
<path fill-rule="evenodd" clip-rule="evenodd" d="M72.8556 150.755H101.214L112.993 92.2324C111.964 92.4589 109.827 93.4351 108.692 93.8931L86.9753 102.511C85.4858 103.094 84.0836 103.671 82.6127 104.235C81.8879 104.512 82.0829 104.569 81.7078 106.449L77.0185 129.89C76.3254 133.341 75.672 136.818 74.9445 140.259C74.3714 142.969 73.2755 148.169 72.8556 150.755Z" fill="white"/>
<path fill-rule="evenodd" clip-rule="evenodd" d="M0.330322 150.475V150.754H62.7015L66.9827 128.983L33.2007 128.978L34.2605 123.465C32.5709 123.953 30.5172 124.938 28.8177 125.593L4.46879 135.251C3.03634 135.824 3.39682 135.288 2.94385 137.576L0.330322 150.475Z" fill="white"/>
<path fill-rule="evenodd" clip-rule="evenodd" d="M242.566 21.7993L270.032 21.801L269.39 25.241C271.809 24.4315 274.439 23.2771 276.826 22.3193C279.298 21.3277 281.784 20.3582 284.265 19.366L328.596 1.76794C329.038 1.52831 328.933 1.30726 329.199 0.0266574L246.829 0.0238037L242.566 21.7993Z" fill="white"/>
<path fill-rule="evenodd" clip-rule="evenodd" d="M321.629 150.754H329.464C329.729 150.635 331.637 150.427 332.145 150.328C334.441 149.879 336.914 148.965 338.937 147.896C340.396 147.125 341.533 146.402 342.778 145.508C345.489 143.561 345.6 143.063 347.704 140.992C348.14 140.564 348.611 139.87 349.081 139.282C353.75 133.441 354.411 126.535 354.67 126.038V125.747L326.518 125.749L321.629 150.754Z" fill="white"/>
<path fill-rule="evenodd" clip-rule="evenodd" d="M329.464 150.754H354.67V126.038C354.411 126.535 353.75 133.441 349.081 139.282C348.611 139.87 348.14 140.564 347.704 140.992C345.6 143.063 345.489 143.561 342.778 145.508C341.533 146.402 340.396 147.125 338.937 147.896C336.914 148.965 334.441 149.879 332.145 150.328C331.637 150.427 329.729 150.635 329.464 150.754Z" fill="white"/>
</svg>
