<svg width="263" height="107" viewBox="0 0 263 107" fill="none" xmlns="http://www.w3.org/2000/svg">
<path fill-rule="evenodd" clip-rule="evenodd" d="M97.0121 56.8857L118.54 48.8161C120.162 48.2102 119.916 48.4457 120.126 47.4177C120.296 46.5911 120.48 45.7804 120.648 44.9607L124.803 25.4288C125.491 22.2034 126.68 20.0363 129.342 18.1156C132.504 15.8341 134.599 16.0073 139.068 16.0073C141.056 16.0073 143.043 16.0073 145.031 16.0073C146.912 16.0073 149.129 15.9001 150.969 16.0194L146.314 38.3589C148.017 37.8623 155.764 34.8166 157.772 34.0815C159.708 33.3729 161.568 32.654 163.497 31.9329C164.118 31.7009 169.08 29.9215 169.19 29.7375L175.434 0.769098L129.206 0.766999C127.847 0.766999 126.338 0.706196 125.014 0.817096C120.076 1.2312 116.061 3.3932 113.131 5.7315C110.428 7.8886 107.631 11.1336 106.022 15.4391C105.185 17.6807 103.548 26.1445 102.899 29.1346L98.4785 49.9289C98.2041 51.18 97.1243 55.9982 97.0121 56.8857Z" fill="#F16136"/>
<path fill-rule="evenodd" clip-rule="evenodd" d="M180.841 106.252H201.966L221.091 16.0073L240.375 16.0051L242.606 5.63049L198.658 22.153L180.841 106.252Z" fill="#F16136"/>
<path fill-rule="evenodd" clip-rule="evenodd" d="M3.48248 92.006L26.3323 83.4444L43.8792 0.788797L22.8688 0.7668C22.6291 0.8391 22.2475 3.1701 22.1739 3.5274C21.9805 4.4675 21.7619 5.4274 21.5723 6.3681C20.4209 12.0794 19.1211 17.7979 17.9429 23.5252C14.8144 38.7319 11.4293 54.0062 8.28878 69.2062L4.06978 89.1441C3.87968 90.0295 3.58748 91.1409 3.48248 92.006Z" fill="#F16136"/>
<path fill-rule="evenodd" clip-rule="evenodd" d="M86.5021 106.252H107.484L114.097 75.6934L127.186 74.9634L135.024 60.2494C135.403 59.5143 137.563 55.6906 137.613 55.3003L118.49 55.1567L119.133 52.0459C118.671 52.0843 99.8644 59.2164 97.4497 60.1364C97.1262 60.2597 96.746 60.3724 96.4424 60.5052C96.0814 60.6633 96.1986 60.6748 96.0256 61.4598C95.3758 64.4092 94.7425 67.4569 94.1178 70.4127C91.5945 82.3507 88.9897 94.3055 86.5021 106.252Z" fill="#F16136"/>
<path fill-rule="evenodd" clip-rule="evenodd" d="M61.7403 70.1162C62.3314 69.9891 81.9723 62.556 83.2533 62.0704C84.7118 61.5175 84.5019 61.9372 84.8422 60.37C85.235 58.5609 85.5977 56.7412 85.9929 54.9543L96.3632 6.24049C96.7464 4.41859 97.2125 2.584 97.5204 0.766998L76.4251 0.767296L61.7403 70.1162Z" fill="#F16136"/>
<path fill-rule="evenodd" clip-rule="evenodd" d="M54.1076 106.252H75.0805L83.7922 65.2971C83.0312 65.4556 81.4509 66.1388 80.6114 66.4593L64.5502 72.4901C63.4486 72.8986 62.4116 73.302 61.3237 73.6966C60.7877 73.891 60.9319 73.9303 60.6545 75.2461L57.1864 91.6508C56.6738 94.0663 56.1906 96.4991 55.6525 98.9072C55.2287 100.804 54.4182 104.443 54.1076 106.252Z" fill="#F16136"/>
<path fill-rule="evenodd" clip-rule="evenodd" d="M0.469788 106.057V106.252H46.5979L49.7642 91.016L24.7799 91.0125L25.5637 87.1546C24.3141 87.4958 22.7952 88.1852 21.5383 88.6435L3.53049 95.4027C2.47109 95.804 2.73769 95.4285 2.40269 97.0302L0.469788 106.057Z" fill="#F16136"/>
<path fill-rule="evenodd" clip-rule="evenodd" d="M179.621 16.0061L199.934 16.0073L199.459 18.4147C201.249 17.8482 203.193 17.0403 204.959 16.37C206.787 15.6761 208.626 14.9976 210.46 14.3032L243.247 1.98759C243.573 1.81989 243.496 1.6652 243.692 0.768995L182.774 0.766998L179.621 16.0061Z" fill="#F16136"/>
<path fill-rule="evenodd" clip-rule="evenodd" d="M238.094 106.252H243.889C244.085 106.169 245.495 106.024 245.871 105.954C247.57 105.64 249.399 105 250.894 104.252C251.974 103.712 252.814 103.206 253.735 102.581C255.74 101.218 255.822 100.87 257.379 99.4204C257.701 99.1207 258.049 98.6353 258.397 98.2239C261.85 94.1359 262.339 89.3032 262.53 88.9554V88.7519L241.71 88.7533L238.094 106.252Z" fill="#F16136"/>
<path fill-rule="evenodd" clip-rule="evenodd" d="M243.889 106.252H262.53V88.9554C262.339 89.3032 261.85 94.1359 258.397 98.2239C258.049 98.6353 257.701 99.1207 257.379 99.4204C255.822 100.87 255.74 101.218 253.735 102.581C252.814 103.206 251.974 103.712 250.895 104.252C249.399 105 247.57 105.64 245.871 105.954C245.495 106.024 244.085 106.169 243.889 106.252Z" fill="#F16136"/>
</svg>
