<svg width="18" height="18" viewBox="0 0 18 18" fill="none" xmlns="http://www.w3.org/2000/svg">
<path fill-rule="evenodd" clip-rule="evenodd" d="M9 0C13.9625 0 18 4.03748 18 9C18 13.9625 13.9625 18 9 18C4.03748 18 0 13.9625 0 9C0 4.03748 4.03748 0 9 0ZM9 2.62501C6.62221 2.62501 4.68749 4.5597 4.68749 6.93752C4.68749 9.31535 6.62221 11.25 9 11.25C11.3778 11.25 13.3125 9.31532 13.3125 6.93749C13.3125 4.55966 11.3778 2.62501 9 2.62501ZM14.9932 13.4901C13.6238 15.3133 11.4506 16.5 9 16.5C6.54933 16.5 4.37621 15.3133 3.00677 13.49C4.50679 12.7683 6.64956 12 9 12C11.3503 12 13.4929 12.7682 14.9932 13.4901Z" fill="#0F1123"/>
</svg>
